<?xml version="1.0" encoding="UTF-8" standalone="no"?>
<!DOCTYPE svg PUBLIC "-//W3C//DTD SVG 1.1//EN" "http://www.w3.org/Graphics/SVG/1.1/DTD/svg11.dtd">
<svg width="100%" height="100%" viewBox="0 0 40 40" version="1.1" xmlns="http://www.w3.org/2000/svg" xmlns:xlink="http://www.w3.org/1999/xlink" xml:space="preserve" xmlns:serif="http://www.serif.com/" style="fill-rule:evenodd;clip-rule:evenodd;">
    <g id="source-sum" serif:id="source sum">
        <g id="source-fill-sum" serif:id="source fill sum">
            <g id="middle" transform="matrix(1,0,0,1,12.5114,8.88178e-16)">
                <path d="M7.065,17.939L7.912,17.939C8.776,17.939 9.478,18.641 9.478,19.504L9.478,20.529C9.478,21.393 8.776,22.094 7.912,22.094L7.085,22.094C6.221,22.094 5.52,21.393 5.52,20.529L5.52,19.254C5.639,18.509 6.286,17.939 7.065,17.939Z" style="fill:rgb(225,225,225);fill-opacity:0.49;"/>
            </g>
            <g id="bot" transform="matrix(1,0,0,1,12.4915,12.4216)">
                <path d="M5.52,9.673L9.497,9.673L9.497,20.529C9.497,21.393 8.796,22.094 7.932,22.094L7.085,22.094C6.221,22.094 5.52,21.393 5.52,20.529L5.52,9.673Z" style="fill:rgb(135,135,135);fill-opacity:0.49;"/>
            </g>
            <g id="top" transform="matrix(1,0,0,1,12.5114,8.88178e-16)">
                <path d="M5.52,17.939L5.52,7.083C5.52,6.219 6.221,5.518 7.085,5.518L7.912,5.518C8.776,5.518 9.478,6.219 9.478,7.083L9.478,17.939L5.52,17.939Z" style="fill:rgb(135,135,135);fill-opacity:0.49;"/>
            </g>
            <g id="right" transform="matrix(1,0,0,1,12.5114,0)">
                <path d="M7.912,17.939L20.404,17.939C21.268,17.939 21.969,18.641 21.969,19.504L21.969,20.779C21.849,21.524 21.202,22.094 20.424,22.094L7.912,22.094C8.776,22.094 9.478,21.393 9.478,20.529L9.478,19.504C9.478,18.641 8.776,17.939 7.912,17.939Z" style="fill:rgb(135,135,135);fill-opacity:0.49;"/>
            </g>
            <g id="left" transform="matrix(1,0,0,1,0,12.4216)">
                <path d="M19.596,9.673L7.085,9.673C6.221,9.673 5.52,8.971 5.52,8.107L5.52,7.083C5.52,6.219 6.221,5.518 7.085,5.518L19.576,5.518C18.798,5.518 18.151,6.087 18.031,6.833L18.031,8.107C18.031,8.971 18.732,9.673 19.596,9.673Z" style="fill:rgb(135,135,135);fill-opacity:0.49;"/>
            </g>
            <g id="outer" transform="matrix(1,0,0,1,12.5114,8.88178e-16)">
                <path d="M-6.992,19.504L-6.992,7.083C-6.992,6.219 -6.291,5.518 -5.427,5.518L7.085,5.518C6.221,5.518 5.52,6.219 5.52,7.083L5.52,17.939L-5.427,17.939C-6.291,17.939 -6.992,18.641 -6.992,19.504ZM7.912,5.518L20.424,5.518C21.288,5.518 21.989,6.219 21.989,7.083L21.989,20.529C21.989,20.614 21.982,20.698 21.969,20.779L21.969,19.504C21.969,18.641 21.268,17.939 20.404,17.939L9.478,17.939L9.478,7.083C9.478,6.219 8.776,5.518 7.912,5.518ZM21.969,20.779L21.969,32.951C21.969,33.814 21.268,34.516 20.404,34.516L7.912,34.516C8.776,34.516 9.478,33.814 9.478,32.951L9.478,22.094L20.424,22.094C21.202,22.094 21.849,21.524 21.969,20.779ZM7.065,34.516L-5.427,34.516C-6.291,34.516 -6.992,33.814 -6.992,32.951L-6.992,20.529C-6.992,21.393 -6.291,22.094 -5.427,22.094L5.5,22.094L5.5,32.951C5.5,33.814 6.201,34.516 7.065,34.516Z" style="fill:rgb(46,46,46);fill-opacity:0.45;"/>
            </g>
        </g>
        <g id="source-outlines-avg" serif:id="source outlines avg">
            <g transform="matrix(1,0,0,1,12.5114,8.88178e-16)">
                <path d="M21.989,7.083L21.989,20.529C21.989,21.393 21.288,22.094 20.424,22.094L7.085,22.094C6.221,22.094 5.52,21.393 5.52,20.529L5.52,7.083C5.52,6.219 6.221,5.518 7.085,5.518L20.424,5.518C21.288,5.518 21.989,6.219 21.989,7.083Z" style="fill:none;stroke:black;stroke-opacity:0.14;stroke-width:0.5px;"/>
            </g>
            <g transform="matrix(1,0,0,1,12.4915,12.4216)">
                <path d="M21.989,7.083L21.989,20.529C21.989,21.393 21.288,22.094 20.424,22.094L7.085,22.094C6.221,22.094 5.52,21.393 5.52,20.529L5.52,7.083C5.52,6.219 6.221,5.518 7.085,5.518L20.424,5.518C21.288,5.518 21.989,6.219 21.989,7.083Z" style="fill:none;stroke:black;stroke-opacity:0.14;stroke-width:0.5px;"/>
            </g>
            <g transform="matrix(1,0,0,1,0,12.4216)">
                <path d="M21.989,7.083L21.989,20.529C21.989,21.393 21.288,22.094 20.424,22.094L7.085,22.094C6.221,22.094 5.52,21.393 5.52,20.529L5.52,7.083C5.52,6.219 6.221,5.518 7.085,5.518L20.424,5.518C21.288,5.518 21.989,6.219 21.989,7.083Z" style="fill:none;stroke:black;stroke-opacity:0.14;stroke-width:0.5px;"/>
            </g>
            <path d="M21.989,7.083L21.989,20.529C21.989,21.393 21.288,22.094 20.424,22.094L7.085,22.094C6.221,22.094 5.52,21.393 5.52,20.529L5.52,7.083C5.52,6.219 6.221,5.518 7.085,5.518L20.424,5.518C21.288,5.518 21.989,6.219 21.989,7.083Z" style="fill:none;stroke:black;stroke-opacity:0.14;stroke-width:0.5px;"/>
        </g>
        <g id="outline" transform="matrix(1,0,0,1,12.5114,8.88178e-16)">
            <path d="M-6.992,32.951L-6.992,7.083C-6.992,6.219 -6.291,5.518 -5.427,5.518L20.424,5.518C21.288,5.518 21.989,6.219 21.989,7.083L21.989,20.529C21.989,20.614 21.982,20.698 21.969,20.779L21.969,32.951C21.969,33.814 21.268,34.516 20.404,34.516L-5.427,34.516C-6.291,34.516 -6.992,33.814 -6.992,32.951Z" style="fill:none;stroke:black;stroke-width:0.5px;"/>
        </g>
    </g>
</svg>
